#!OML:ASF F:\VICON\USERDATA\INSTALL\Justin_Nancy\Justin_Nancy.ASF
:FULLY-SPECIFIED
:DEGREES
162
root 13.4554 16.1508 15.1831 -76.4574 77.8018 -85.2218
lowerback 14.0724 1.04304 1.05431
upperback 3.104 1.99644 4.6897
thorax -4.74488 1.08011 3.98647
lowerneck -14.6634 -7.9577 -7.35791
upperneck 9.70756 -10.7033 10.8217
head 6.3468 -4.6651 3.53617
rclavicle 1.28216e-014 5.56597e-015
rhumerus -44.2499 23.2461 -96.8785
rradius 110.367
rwrist -15.9027
rhand -9.70932 28.5565
rfingers 7.12502
rthumb 16.2636 -0.7814
lclavicle 1.28216e-014 5.56597e-015
lhumerus -52.1039 -20.9536 105.317
lradius 94.2701
lwrist 18.2719
lhand -18.8737 5.38515
lfingers 7.12502
lthumb 7.42708 35.2348
rfemur 3.41778 7.33788 20.8513
rtibia 49.5788
rfoot 8.55921 -0.099784
rtoes -10.2127
lfemur -50.6036 8.82636 -25.3989
ltibia 61.1929
lfoot -10.4024 -6.8452
ltoes 16.3828
163
root 13.8579 16.1416 15.2167 -76.5294 77.255 -85.144
lowerback 13.8523 0.874102 1.35647
upperback 3.1761 1.81383 4.77019
thorax -4.53053 0.988089 3.93496
lowerneck -14.7261 -7.60872 -7.29396
upperneck 9.85688 -10.2095 10.5339
head 6.33753 -4.44199 3.49158
rclavicle 2.0276e-014 3.81667e-014
rhumerus -44.9477 22.8396 -96.7598
rradius 109.051
rwrist -16.0485
rhand -9.90841 28.3093
rfingers 7.12502
rthumb 16.0718 -1.04419
lclavicle 2.0276e-014 3.81667e-014
lhumerus -51.1859 -21.1024 105.61
lradius 94.9593
lwrist 17.8568
lhand -20.1219 5.67509
lfingers 7.12502
lthumb 6.22216 35.5637
rfemur 0.950704 6.88018 21.5243
rtibia 54.6167
rfoot 7.58724 -0.650759
rtoes -13.3843
lfemur -48.9355 9.59715 -25.2417
ltibia 62.0475
lfoot -11.8591 -3.41871
ltoes 16.4695
164
root 14.2675 16.1374 15.2449 -76.19 77.4411 -84.4175
lowerback 13.9452 0.621352 0.873872
upperback 3.23419 1.40861 4.74883
thorax -4.50513 0.791821 4.2596
lowerneck -15.0216 -7.13122 -7.24103
upperneck 10.3946 -9.5363 10.0996
head 6.4686 -4.12902 3.4146
rclavicle 4.07509e-015 1.03368e-014
rhumerus -45.8068 22.6942 -96.5894
rradius 107.722
rwrist -15.6167
rhand -9.65005 28.0944
rfingers 7.12502
rthumb 16.3206 -1.23887
lclavicle 4.07509e-015 1.03368e-014
lhumerus -50.1113 -20.7831 105.8
lradius 95.733
lwrist 17.5149
lhand -20.7969 6.22296
lfingers 7.12502
lthumb 5.5704 36.1298
rfemur -1.37004 6.09663 21.2751
rtibia 59.4943
rfoot 7.06646 -2.64272
rtoes -13.4388
lfemur -46.6692 10.1683 -25.6743
ltibia 62.5035
lfoot -14.3484 -4.07832
ltoes 19.7971
165
root 14.6634 16.1258 15.258 -78.0724 78.1755 -85.9206
lowerback 14.3453 0.253738 0.361469
upperback 3.1634 0.836168 4.45261
thorax -4.75962 0.511024 4.34168
lowerneck -15.2579 -6.76087 -7.11414
upperneck 10.8921 -9.03223 9.74317
head 6.59674 -3.89256 3.33265
rclavicle -6.55989e-015 -4.57205e-014
rhumerus -46.8615 22.0146 -96.3895
rradius 106.577
rwrist -15.1128
rhand -9.67447 27.9019
rfingers 7.12502
rthumb 16.2971 -1.43326
lclavicle -6.55989e-015 -4.57205e-014
lhumerus -48.9138 -20.9565 105.713
lradius 96.5927
lwrist 17.3072
lhand -19.9134 7.10317
lfingers 7.12502
lthumb 6.42337 36.9858
rfemur -3.84593 4.32393 20.2806
rtibia 64.2339
rfoot 6.48242 -4.44734
rtoes -11.6226
lfemur -44.2056 9.71854 -26.4139
ltibia 62.1809
lfoot -16.8927 -2.53367
ltoes 19.2757
166
root 15.0418 16.0935 15.2733 -81.2035 79.1634 -88.7445
lowerback 14.8457 -0.0987331 -0.338167
upperback 3.04242 0.244527 4.07099
thorax -5.11593 0.225369 4.45195
lowerneck -15.6608 -6.47242 -6.887
upperneck 11.4653 -8.65772 9.39902
head 6.78801 -3.70764 3.21946
rclavicle 6.36111e-015 6.44062e-014
rhumerus -47.8786 21.059 -96.1773
rradius 105.489
rwrist -14.5015
rhand -10.5543 27.6413
rfingers 7.12502
rthumb 15.4498 -1.76125
lclavicle 6.36111e-015 6.44062e-014
lhumerus -47.7075 -21.7347 105.703
lradius 97.5586
lwrist 17.7413
lhand -20.5936 7.193
lfingers 7.12502
lthumb 5.76674 37.0945
rfemur -6.64351 2.16819 18.9903
rtibia 68.8925
rfoot 5.30141 -5.54527
rtoes -10.8215
lfemur -41.6641 8.80924 -27.2123
ltibia 61.3119
lfoot -18.946 -0.162492
ltoes 17.3815
167
root 15.4232 16.0725 15.2836 -83.7314 80.4936 -91.0554
lowerback 15.2166 -0.407086 -1.58229
upperback 2.92824 -0.38511 3.75537
thorax -5.37893 -0.0683838 4.95866
lowerneck -15.9302 -6.19897 -6.77795
upperneck 11.8103 -8.25817 9.00286
head 6.88648 -3.5311 3.11523
rclavicle 1.88845e-014 -2.94201e-014
rhumerus -48.8245 20.3324 -95.8525
rradius 104.436
rwrist -13.9424
rhand -11.6733 27.1059
rfingers 7.12502
rthumb 14.3718 -2.37663
lclavicle 1.88845e-014 -2.94201e-014
lhumerus -46.2926 -22.4763 106.009
lradius 98.5469
lwrist 19.144
lhand -24.6935 6.99013
lfingers 7.12502
lthumb 1.80757 36.9622
rfemur -9.64291 0.211024 17.2589
rtibia 73.2859
rfoot 3.53668 -6.32951
rtoes -10.387
lfemur -38.9437 7.87539 -28.2772
ltibia 60.1552
lfoot -20.6966 0.504685
ltoes 17.4902
168
root 15.7896 16.0359 15.2767 -86.8901 82.1 -94.0481
lowerback 15.6724 -0.702577 -2.73716
upperback 2.78971 -1.01405 3.21154
thorax -5.70025 -0.358964 5.17763
lowerneck -16.1863 -5.88495 -6.49602
upperneck 11.9663 -7.85496 8.77697
head 6.92534 -3.33398 3.03994
rclavicle 2.08724e-014 5.56597e-015
rhumerus -49.8655 19.2298 -95.6375
rradius 103.61
rwrist -13.3613
rhand -12.1324 26.9968
rfingers 7.12502
rthumb 13.9294 -2.51666
lclavicle 2.08724e-014 5.56597e-015
lhumerus -44.1834 -22.4763 105.183
lradius 98.9801
lwrist 16.3175
lhand -23.4814 6.59601
lfingers 7.12502
lthumb 2.97824 36.555
rfemur -12.8872 -1.80425 15.0235
rtibia 77.4557
rfoot 1.43488 -6.93
rtoes -7.40224
lfemur -36.3945 6.47611 -29.6558
ltibia 59.1925
lfoot -22.353 1.0994
ltoes 16.442
169
root 16.1506 15.9973 15.2634 -88.8912 83.866 -95.9958
lowerback 16.013 -0.861587 -3.94335
upperback 2.61296 -1.49247 2.57097
thorax -6.00651 -0.570111 5.29309
lowerneck -16.4691 -5.66742 -6.60323
upperneck 12.1508 -7.55791 8.9376
head 7.02048 -3.17138 3.14079
rclavicle 4.21423e-014 5.56597e-015
rhumerus -51.1864 17.7878 -95.5076
rradius 103.176
rwrist -12.4464
rhand -11.6675 27.479
rfingers 7.12502
rthumb 14.3774 -2.00307
lclavicle 4.21423e-014 5.56597e-015
lhumerus -42.2747 -23.1583 104.704
lradius 99.5956
lwrist 15.5341
lhand -26.5937 6.64147
lfingers 7.12502
lthumb -0.0276224 36.6212
rfemur -16.4365 -3.49947 12.6778
rtibia 81.2423
rfoot -0.677849 -7.34367
rtoes -4.81233
lfemur -34.1281 5.08799 -31.2756
ltibia 58.3499
lfoot -23.6894 2.64762
ltoes 14.3658
170
root 16.5126 15.9504 15.2809 -84.9391 84.8136 -92.1344
lowerback 16.0535 -0.808837 -4.71834
upperback 2.46289 -1.59812 2.1597
thorax -6.16631 -0.605558 5.32136
lowerneck -16.8384 -5.60041 -6.95058
upperneck 12.3883 -7.45562 9.38261
head 7.18486 -3.08478 3.35044
rclavicle -1.49089e-014 -8.74653e-015
rhumerus -52.6571 16.5178 -95.3738
rradius 103.28
rwrist -12.3179
rhand -11.521 27.705
rfingers 7.12502
rthumb 14.5185 -1.76699
lclavicle -1.49089e-014 -8.74653e-015
lhumerus -40.5406 -24.0609 104.185
lradius 100.434
lwrist 15.9562
lhand -27.6079 5.36464
lfingers 7.12502
lthumb -1.00722 35.342
rfemur -20.4493 -4.1852 11.7742
rtibia 84.5855
rfoot -2.60443 -8.16354
rtoes -1.83241
lfemur -32.4154 4.54414 -31.9205
ltibia 57.8057
lfoot -25.0383 2.60355
ltoes 15.5058
171
root 16.8763 15.9177 15.2964 -77.8285 85.1923 -85.06
lowerback 15.9974 -0.571429 -5.17381
upperback 2.46489 -1.37128 2.04117
thorax -6.153 -0.487572 5.40658
lowerneck -17.1125 -5.70257 -7.71615
upperneck 12.204 -7.4942 10.0519
head 7.2342 -3.07627 3.68687
rclavicle -3.02153e-014 1.59028e-015
rhumerus -53.8526 15.3713 -94.5806
rradius 103.811
rwrist -13.1564
rhand -11.7912 27.2902
rfingers 7.12502
rthumb 14.2582 -2.20036
lclavicle -3.02153e-014 1.59028e-015
lhumerus -38.5019 -24.5278 103.725
lradius 101.289
lwrist 15.481
lhand -26.3972 4.68282
lfingers 7.12502
lthumb 0.162159 34.6625
rfemur -24.4046 -4.21585 11.7083
rtibia 87.0811
rfoot -4.33256 -9.06417
rtoes 0.572909
lfemur -30.8395 4.65793 -32.191
ltibia 57.5114
lfoot -26.3563 2.57168
ltoes 15.7816
172
root 17.2283 15.8769 15.3048 -74.1675 85.5543 -81.2029
lowerback 16.2456 -0.39434 -5.8744
upperback 2.54876 -1.24468 2.30927
thorax -6.19109 -0.406111 6.08093
lowerneck -17.3305 -5.69335 -8.21697
upperneck 11.8727 -7.28644 9.82946
head 7.15193 -3.02214 3.71579
rclavicle -7.7526e-015 -1.51076e-014
rhumerus -54.8959 14.6754 -93.2991
rradius 104.464
rwrist -14.3757
rhand -12.3933 27.0664
rfingers 7.12502
rthumb 13.6779 -2.46415
lclavicle -7.7526e-015 -1.51076e-014
lhumerus -36.3178 -24.1647 103.621
lradius 102.118
lwrist 14.1687
lhand -25.5715 4.71954
lfingers 7.12502
lthumb 0.959621 34.6971
rfemur -28.1247 -4.75553 11.6951
rtibia 88.9711
rfoot -5.59877 -9.59024
rtoes -0.251673
lfemur -29.0952 4.94082 -32.7103
ltibia 57.4363
lfoot -27.0744 5.23796
ltoes 7.63122
173
root 17.6145 15.8696 15.241 -60.7672 82.6163 -67.9305
lowerback 15.674 -0.137498 -3.31367
upperback 2.68274 -0.393673 2.97857
thorax -5.87916 -0.0456034 5.13625
lowerneck -17.749 -5.33989 -8.13027
upperneck 11.748 -6.67438 9.13639
head 7.0921 -2.77877 3.54219
rclavicle -1.55052e-014 -7.95139e-016
rhumerus -55.7742 14.5828 -92.5448
rradius 105.126
rwrist -15.6287
rhand -13.1079 26.6829
rfingers 7.12502
rthumb 12.9892 -2.89275
lclavicle -1.55052e-014 -7.95139e-016
lhumerus -34.401 -23.2966 103.142
lradius 103.292
lwrist 13.532
lhand -24.6532 4.9645
lfingers 7.12502
lthumb 1.84655 34.9363
rfemur -32.0709 -2.68788 14.8505
rtibia 89.5665
rfoot -6.28314 -10.5081
rtoes -1.8012
lfemur -27.7704 6.45403 -30.5261
ltibia 57.5106
lfoot -27.8297 7.46989
ltoes 2.79389
174
root 17.9743 15.8736 15.2232 -60.2361 81.66 -67.7209
lowerback 15.5928 -0.680868 -2.16909
upperback 2.54443 -0.897266 3.27978
thorax -5.94089 -0.307795 4.90521
lowerneck -18.1027 -4.65802 -8.31499
upperneck 11.8128 -5.61701 8.76647
head 7.06819 -2.30621 3.57738
rclavicle -1.63003e-014 -5.40694e-014
rhumerus -56.7273 15.3478 -92.4585
rradius 105.731
rwrist -16.893
rhand -13.0859 26.9397
rfingers 7.12502
rthumb 13.0104 -2.63461
lclavicle -1.63003e-014 -5.40694e-014
lhumerus -33.108 -21.5192 102.498
lradius 104.684
lwrist 13.4466
lhand -25.0181 4.62833
lfingers 7.12502
lthumb 1.49413 34.6028
rfemur -35.8669 -1.73388 16.6795
rtibia 89.7666
rfoot -7.27288 -10.8642
rtoes -1.05013
lfemur -26.585 6.50547 -29.4702
ltibia 57.1878
lfoot -28.5285 5.59155
ltoes 9.20608
175
root 18.352 15.8882 15.1913 -51.4537 81.8334 -58.9482
lowerback 15.5455 -0.877301 -2.65381
upperback 2.4242 -1.26104 3.07931
thorax -5.99999 -0.479543 5.04257
lowerneck -17.972 -3.91161 -8.18683
upperneck 11.6494 -4.54535 8.22234
head 6.8781 -1.83994 3.50521
rclavicle -2.38542e-014 4.65156e-014
rhumerus -57.7334 16.0143 -92.5103
rradius 106.32
rwrist -17.787
rhand -12.9972 27.4287
rfingers 7.12502
rthumb 13.0959 -2.14014
lclavicle -2.38542e-014 4.65156e-014
lhumerus -32.3458 -19.8995 102.096
lradius 106.146
lwrist 13.7862
lhand -25.7943 4.27215
lfingers 7.12502
lthumb 0.744433 34.2506
rfemur -39.1911 -0.376817 16.4275
rtibia 89.2899
rfoot -8.53067 -9.6984
rtoes -1.52453
lfemur -24.7747 7.13275 -30.2466
ltibia 56.4222
lfoot -28.8024 3.93227
ltoes 14.9095
176
root 18.7098 15.8578 15.2269 -14.3527 86.1984 -20.3335
lowerback 17.0935 -0.942087 -8.3432
upperback 2.58814 -2.50487 1.7077
thorax -6.33709 -0.965678 7.14189
lowerneck -17.6311 -3.27331 -6.88558
upperneck 11.2318 -3.78687 6.84874
head 6.56482 -1.54477 2.92679
rclavicle -5.68524e-014 -2.3059e-014
rhumerus -58.4435 16.0467 -92.5993
rradius 106.86
rwrist -18.4242
rhand -13.1532 27.4012
rfingers 7.12502
rthumb 12.9455 -2.17721
lclavicle -5.68524e-014 -2.3059e-014
lhumerus -31.5569 -19.0804 101.628
lradius 107.613
lwrist 15.13
lhand -23.685 5.37159
lfingers 7.12502
lthumb 2.78154 35.3332
rfemur -41.1399 -2.14115 10.6437
rtibia 89.0467
rfoot -10.4028 -7.23347
rtoes -3.13062
lfemur -20.9209 6.67352 -35.8639
ltibia 54.8891
lfoot -28.0196 3.78516
ltoes 10.8807
